<svg xmlns="http://www.w3.org/2000/svg" xmlns:xlink="http://www.w3.org/1999/xlink" width="150" zoomAndPan="magnify" viewBox="0 0 112.5 112.499997" height="150" preserveAspectRatio="xMidYMid meet" version="1.0"><defs><clipPath id="f69383333b"><path d="M 16.859375 0 L 100.488281 0 L 100.488281 112 L 16.859375 112 Z M 16.859375 0 " clip-rule="nonzero"/></clipPath></defs><g clip-path="url(#f69383333b)"><path fill="#000000" d="M 28.589844 0.0273438 C 35.066406 0.0273438 40.316406 5.3125 40.316406 11.828125 C 40.316406 18.347656 35.066406 23.628906 28.589844 23.628906 C 22.109375 23.628906 16.859375 18.347656 16.859375 11.828125 C 16.859375 5.3125 22.109375 0.0273438 28.589844 0.0273438 Z M 32.605469 63.871094 C 32.691406 56.398438 33.738281 49.730469 35.738281 43.875 C 37.832031 37.753906 40.753906 32.613281 44.5 28.449219 C 48.246094 24.289062 52.746094 21.15625 58.003906 19.003906 C 63.234375 16.847656 69.027344 15.769531 75.351562 15.769531 C 77.90625 15.769531 80.367188 15.992188 82.75 16.433594 C 85.132812 16.847656 87.324219 17.410156 89.34375 18.121094 C 91.363281 18.804688 93.164062 19.613281 94.792969 20.519531 C 96.402344 21.449219 97.542969 22.230469 98.175781 22.871094 C 98.808594 23.53125 99.246094 24.070312 99.492188 24.484375 C 99.734375 24.925781 99.929688 25.464844 100.050781 26.125 C 100.195312 26.8125 100.316406 27.59375 100.390625 28.5 C 100.464844 29.40625 100.488281 30.507812 100.488281 31.855469 C 100.488281 35.425781 97.96875 41.769531 92.46875 38.574219 C 74.300781 28.019531 52.894531 37.3125 52.894531 63.871094 C 52.894531 90.429688 73.34375 98.144531 92.46875 89.167969 C 98.226562 86.46875 100.488281 92.316406 100.488281 95.890625 C 100.488281 97.238281 100.464844 98.339844 100.390625 99.246094 C 100.316406 100.148438 100.195312 100.933594 100.050781 101.617188 C 99.929688 102.28125 99.734375 102.816406 99.492188 103.257812 C 99.246094 103.675781 98.808594 104.214844 98.175781 104.875 C 97.542969 105.511719 96.402344 106.292969 94.792969 107.222656 C 93.164062 108.128906 91.363281 108.9375 89.34375 109.625 C 87.324219 110.335938 85.132812 110.898438 82.75 111.3125 C 80.367188 111.753906 77.90625 111.972656 75.351562 111.972656 C 69.027344 111.972656 63.234375 110.898438 58.003906 108.742188 C 52.746094 106.585938 48.246094 103.453125 44.5 99.292969 C 40.753906 95.132812 37.832031 89.988281 35.738281 83.871094 C 33.738281 78.015625 32.691406 71.347656 32.605469 63.871094 Z M 28.589844 6.433594 C 31.550781 6.433594 33.949219 8.851562 33.949219 11.828125 C 33.949219 14.808594 31.550781 17.222656 28.589844 17.222656 C 25.625 17.222656 23.226562 14.808594 23.226562 11.828125 C 23.226562 8.851562 25.625 6.433594 28.589844 6.433594 Z M 28.589844 6.433594 " fill-opacity="1" fill-rule="evenodd"/></g></svg>