<svg xmlns="http://www.w3.org/2000/svg" xmlns:xlink="http://www.w3.org/1999/xlink" width="150" zoomAndPan="magnify" viewBox="0 0 112.5 112.499997" height="150" preserveAspectRatio="xMidYMid meet" version="1.0"><defs><clipPath id="0d2245b580"><path d="M 6 42 L 110 42 L 110 103.695312 L 6 103.695312 Z M 6 42 " clip-rule="nonzero"/></clipPath><clipPath id="eabd03d6f1"><path d="M 23 8.121094 L 27 8.121094 L 27 11 L 23 11 Z M 23 8.121094 " clip-rule="nonzero"/></clipPath></defs><path fill="#6b99d2" d="M 59.515625 49.253906 L 59.25 49.253906 C 59.566406 48.222656 59.722656 47.167969 59.710938 46.085938 C 59.710938 45.0625 59.570312 44.058594 59.285156 43.070312 C 58.996094 42.085938 58.578125 41.164062 58.027344 40.296875 C 57.476562 39.429688 56.816406 38.660156 56.046875 37.980469 C 55.273438 37.304688 54.425781 36.746094 53.496094 36.3125 C 52.566406 35.875 51.59375 35.578125 50.578125 35.417969 C 49.5625 35.257812 48.546875 35.246094 47.527344 35.375 C 46.507812 35.503906 45.527344 35.773438 44.585938 36.183594 C 43.644531 36.589844 42.777344 37.121094 41.984375 37.777344 C 41.804688 36.941406 41.546875 36.125 41.214844 35.335938 C 40.882812 34.542969 40.484375 33.789062 40.011719 33.074219 C 39.542969 32.355469 39.011719 31.6875 38.417969 31.070312 C 37.824219 30.449219 37.179688 29.890625 36.480469 29.386719 C 35.785156 28.886719 35.046875 28.453125 34.273438 28.085938 C 33.496094 27.722656 32.691406 27.429688 31.859375 27.210938 C 31.03125 26.992188 30.1875 26.851562 29.332031 26.789062 C 28.476562 26.722656 27.621094 26.738281 26.765625 26.832031 C 25.914062 26.925781 25.074219 27.09375 24.253906 27.339844 C 23.429688 27.589844 22.636719 27.90625 21.875 28.300781 C 21.109375 28.691406 20.386719 29.152344 19.710938 29.675781 C 19.03125 30.199219 18.40625 30.78125 17.832031 31.421875 C 17.261719 32.0625 16.753906 32.746094 16.308594 33.480469 C 15.859375 34.210938 15.488281 34.980469 15.183594 35.78125 C 14.878906 36.582031 14.648438 37.40625 14.496094 38.25 C 14.34375 39.089844 14.269531 39.941406 14.273438 40.800781 C 14.277344 41.691406 14.363281 42.578125 14.542969 43.457031 C 13.964844 43.378906 13.386719 43.335938 12.808594 43.332031 C 12.164062 43.332031 11.527344 43.382812 10.890625 43.488281 C 10.257812 43.589844 9.636719 43.746094 9.027344 43.953125 C 8.417969 44.15625 7.832031 44.414062 7.265625 44.714844 C 6.699219 45.019531 6.160156 45.367188 5.652344 45.757812 C 5.144531 46.148438 4.671875 46.582031 4.230469 47.050781 C 3.792969 47.519531 3.398438 48.023438 3.042969 48.558594 C 2.691406 49.09375 2.382812 49.652344 2.121094 50.238281 C 1.859375 50.824219 1.648438 51.429688 1.484375 52.050781 C 1.324219 52.671875 1.214844 53.300781 1.15625 53.941406 C 1.097656 54.578125 1.09375 55.21875 1.140625 55.859375 C 1.191406 56.496094 1.292969 57.128906 1.445312 57.753906 C 1.597656 58.375 1.800781 58.980469 2.054688 59.570312 C 2.304688 60.160156 2.605469 60.726562 2.953125 61.265625 C 3.300781 61.804688 3.6875 62.3125 4.121094 62.789062 C 4.550781 63.265625 5.019531 63.703125 5.519531 64.101562 C 6.023438 64.5 6.558594 64.855469 7.117188 65.167969 C 8.578125 66.152344 10.191406 66.648438 11.953125 66.65625 L 59.515625 66.65625 C 60.089844 66.652344 60.652344 66.59375 61.210938 66.480469 C 61.773438 66.367188 62.316406 66.199219 62.839844 65.980469 C 63.367188 65.757812 63.867188 65.488281 64.34375 65.171875 C 64.816406 64.855469 65.253906 64.496094 65.65625 64.089844 C 66.0625 63.6875 66.421875 63.25 66.738281 62.773438 C 67.054688 62.300781 67.324219 61.800781 67.542969 61.273438 C 67.761719 60.75 67.925781 60.207031 68.039062 59.648438 C 68.152344 59.089844 68.207031 58.523438 68.210938 57.953125 C 68.207031 57.386719 68.152344 56.820312 68.039062 56.261719 C 67.925781 55.703125 67.761719 55.160156 67.542969 54.636719 C 67.324219 54.109375 67.054688 53.609375 66.738281 53.132812 C 66.421875 52.660156 66.0625 52.222656 65.65625 51.820312 C 65.253906 51.414062 64.816406 51.054688 64.34375 50.738281 C 63.867188 50.417969 63.367188 50.152344 62.839844 49.929688 C 62.316406 49.710938 61.773438 49.542969 61.210938 49.429688 C 60.652344 49.316406 60.089844 49.257812 59.515625 49.253906 Z M 59.515625 49.253906 " fill-opacity="1" fill-rule="nonzero"/><g clip-path="url(#0d2245b580)"><path fill="#26477a" d="M 19.695312 77.035156 L 20.085938 77.035156 C 19.597656 75.445312 19.355469 73.824219 19.351562 72.160156 C 19.351562 71.378906 19.40625 70.597656 19.515625 69.824219 C 19.628906 69.046875 19.792969 68.285156 20.011719 67.53125 C 20.230469 66.777344 20.5 66.046875 20.824219 65.332031 C 21.148438 64.617188 21.519531 63.929688 21.941406 63.269531 C 22.359375 62.609375 22.824219 61.980469 23.335938 61.382812 C 23.847656 60.789062 24.394531 60.234375 24.984375 59.714844 C 25.574219 59.195312 26.195312 58.722656 26.855469 58.292969 C 27.511719 57.863281 28.195312 57.484375 28.902344 57.152344 C 29.613281 56.820312 30.34375 56.539062 31.097656 56.308594 C 31.847656 56.078125 32.609375 55.902344 33.386719 55.78125 C 34.160156 55.660156 34.941406 55.59375 35.726562 55.585938 C 36.511719 55.574219 37.292969 55.617188 38.070312 55.71875 C 38.847656 55.816406 39.617188 55.972656 40.375 56.179688 C 41.128906 56.390625 41.867188 56.648438 42.585938 56.960938 C 43.308594 57.273438 44 57.636719 44.667969 58.046875 C 45.335938 58.460938 45.972656 58.914062 46.578125 59.417969 C 46.855469 58.132812 47.25 56.886719 47.757812 55.675781 C 48.265625 54.460938 48.882812 53.308594 49.601562 52.207031 C 50.324219 51.109375 51.140625 50.085938 52.050781 49.136719 C 52.960938 48.1875 53.949219 47.328125 55.015625 46.5625 C 56.085938 45.792969 57.214844 45.128906 58.402344 44.570312 C 59.59375 44.007812 60.824219 43.558594 62.097656 43.226562 C 63.371094 42.890625 64.664062 42.675781 65.976562 42.578125 C 67.289062 42.480469 68.597656 42.5 69.90625 42.644531 C 71.214844 42.785156 72.5 43.046875 73.761719 43.425781 C 75.019531 43.804688 76.234375 44.292969 77.40625 44.894531 C 78.578125 45.496094 79.683594 46.199219 80.722656 47 C 81.765625 47.804688 82.722656 48.695312 83.601562 49.675781 C 84.476562 50.65625 85.257812 51.707031 85.941406 52.832031 C 86.621094 53.953125 87.199219 55.128906 87.664062 56.355469 C 88.132812 57.585938 88.480469 58.84375 88.71875 60.136719 C 88.953125 61.429688 89.066406 62.734375 89.0625 64.046875 C 89.054688 65.421875 88.925781 66.789062 88.671875 68.140625 C 89.554688 68.011719 90.441406 67.949219 91.332031 67.945312 C 92.316406 67.945312 93.296875 68.027344 94.265625 68.191406 C 95.238281 68.351562 96.191406 68.589844 97.121094 68.910156 C 98.054688 69.226562 98.953125 69.621094 99.820312 70.085938 C 100.6875 70.554688 101.507812 71.085938 102.289062 71.6875 C 103.066406 72.289062 103.792969 72.953125 104.460938 73.671875 C 105.128906 74.394531 105.734375 75.164062 106.277344 75.984375 C 106.820312 76.804688 107.292969 77.664062 107.691406 78.5625 C 108.09375 79.460938 108.417969 80.386719 108.664062 81.335938 C 108.910156 82.289062 109.078125 83.253906 109.167969 84.234375 C 109.253906 85.210938 109.261719 86.191406 109.1875 87.171875 C 109.113281 88.152344 108.960938 89.121094 108.726562 90.074219 C 108.496094 91.03125 108.183594 91.960938 107.796875 92.863281 C 107.410156 93.765625 106.949219 94.632812 106.421875 95.460938 C 105.890625 96.289062 105.296875 97.070312 104.636719 97.800781 C 103.976562 98.53125 103.261719 99.203125 102.492188 99.816406 C 101.722656 100.429688 100.910156 100.972656 100.046875 101.453125 C 97.808594 102.949219 95.34375 103.695312 92.652344 103.695312 L 19.695312 103.695312 C 18.816406 103.695312 17.949219 103.605469 17.089844 103.433594 C 16.230469 103.261719 15.394531 103.007812 14.585938 102.675781 C 13.777344 102.339844 13.007812 101.929688 12.277344 101.441406 C 11.550781 100.957031 10.875 100.402344 10.257812 99.785156 C 9.636719 99.164062 9.082031 98.492188 8.597656 97.765625 C 8.109375 97.039062 7.695312 96.269531 7.359375 95.460938 C 7.023438 94.65625 6.769531 93.820312 6.597656 92.964844 C 6.425781 92.105469 6.339844 91.242188 6.335938 90.367188 C 6.339844 89.492188 6.429688 88.625 6.601562 87.769531 C 6.777344 86.910156 7.03125 86.078125 7.367188 85.273438 C 7.703125 84.464844 8.117188 83.699219 8.605469 82.972656 C 9.089844 82.246094 9.644531 81.574219 10.265625 80.953125 C 10.882812 80.335938 11.558594 79.785156 12.285156 79.296875 C 13.011719 78.8125 13.78125 78.398438 14.589844 78.0625 C 15.398438 77.726562 16.234375 77.472656 17.089844 77.300781 C 17.949219 77.125 18.816406 77.039062 19.695312 77.035156 Z M 19.695312 77.035156 " fill-opacity="1" fill-rule="nonzero"/></g><path fill="#26477a" d="M 55.539062 20.671875 C 55.539062 20.839844 55.570312 21.007812 55.636719 21.164062 C 55.703125 21.324219 55.792969 21.460938 55.917969 21.582031 C 56.039062 21.703125 56.175781 21.796875 56.335938 21.863281 C 56.496094 21.929688 56.660156 21.960938 56.832031 21.960938 C 57.003906 21.960938 57.167969 21.929688 57.328125 21.863281 C 57.484375 21.796875 57.625 21.703125 57.746094 21.582031 C 57.867188 21.460938 57.960938 21.324219 58.027344 21.164062 C 58.09375 21.007812 58.125 20.839844 58.125 20.671875 C 58.125 20.5 58.09375 20.335938 58.027344 20.175781 C 57.960938 20.019531 57.867188 19.878906 57.746094 19.757812 C 57.625 19.636719 57.484375 19.542969 57.328125 19.476562 C 57.167969 19.410156 57.003906 19.378906 56.832031 19.378906 C 56.660156 19.378906 56.496094 19.410156 56.335938 19.476562 C 56.175781 19.542969 56.039062 19.636719 55.917969 19.757812 C 55.792969 19.878906 55.703125 20.019531 55.636719 20.175781 C 55.570312 20.335938 55.539062 20.5 55.539062 20.671875 Z M 55.539062 20.671875 " fill-opacity="1" fill-rule="nonzero"/><g clip-path="url(#eabd03d6f1)"><path fill="#26477a" d="M 23.527344 9.410156 C 23.527344 9.582031 23.558594 9.746094 23.625 9.90625 C 23.691406 10.0625 23.785156 10.203125 23.90625 10.324219 C 24.027344 10.445312 24.167969 10.539062 24.324219 10.605469 C 24.484375 10.671875 24.648438 10.703125 24.820312 10.703125 C 24.992188 10.703125 25.15625 10.671875 25.316406 10.605469 C 25.476562 10.539062 25.613281 10.445312 25.734375 10.324219 C 25.859375 10.203125 25.949219 10.0625 26.015625 9.90625 C 26.082031 9.746094 26.113281 9.582031 26.113281 9.410156 C 26.113281 9.242188 26.082031 9.074219 26.015625 8.917969 C 25.949219 8.757812 25.859375 8.621094 25.734375 8.5 C 25.613281 8.378906 25.476562 8.285156 25.316406 8.21875 C 25.15625 8.152344 24.992188 8.121094 24.820312 8.121094 C 24.648438 8.121094 24.484375 8.152344 24.324219 8.21875 C 24.167969 8.285156 24.027344 8.378906 23.90625 8.5 C 23.785156 8.621094 23.691406 8.757812 23.625 8.917969 C 23.558594 9.074219 23.527344 9.242188 23.527344 9.410156 Z M 23.527344 9.410156 " fill-opacity="1" fill-rule="nonzero"/></g><path fill="#26477a" d="M 89.085938 13.1875 C 89.085938 13.359375 89.117188 13.523438 89.183594 13.683594 C 89.25 13.839844 89.34375 13.980469 89.464844 14.101562 C 89.585938 14.222656 89.726562 14.316406 89.882812 14.382812 C 90.042969 14.449219 90.207031 14.480469 90.378906 14.480469 C 90.550781 14.480469 90.714844 14.449219 90.875 14.382812 C 91.035156 14.316406 91.171875 14.222656 91.292969 14.101562 C 91.417969 13.980469 91.507812 13.839844 91.574219 13.683594 C 91.640625 13.523438 91.671875 13.359375 91.671875 13.1875 C 91.671875 13.019531 91.640625 12.851562 91.574219 12.695312 C 91.507812 12.535156 91.417969 12.398438 91.292969 12.277344 C 91.171875 12.15625 91.035156 12.0625 90.875 11.996094 C 90.714844 11.929688 90.550781 11.898438 90.378906 11.898438 C 90.207031 11.898438 90.042969 11.929688 89.882812 11.996094 C 89.726562 12.0625 89.585938 12.15625 89.464844 12.277344 C 89.34375 12.398438 89.25 12.535156 89.183594 12.695312 C 89.117188 12.851562 89.085938 13.019531 89.085938 13.1875 Z M 89.085938 13.1875 " fill-opacity="1" fill-rule="nonzero"/><path fill="#26477a" d="M 6.335938 34.121094 C 6.335938 34.292969 6.371094 34.457031 6.4375 34.617188 C 6.503906 34.773438 6.59375 34.914062 6.714844 35.035156 C 6.839844 35.15625 6.976562 35.25 7.136719 35.316406 C 7.296875 35.378906 7.460938 35.414062 7.632812 35.414062 C 7.804688 35.414062 7.96875 35.378906 8.128906 35.316406 C 8.285156 35.25 8.425781 35.15625 8.546875 35.035156 C 8.667969 34.914062 8.761719 34.773438 8.828125 34.617188 C 8.894531 34.457031 8.925781 34.292969 8.925781 34.121094 C 8.925781 33.949219 8.894531 33.785156 8.828125 33.628906 C 8.761719 33.46875 8.667969 33.328125 8.546875 33.207031 C 8.425781 33.085938 8.285156 32.996094 8.128906 32.929688 C 7.96875 32.863281 7.804688 32.832031 7.632812 32.832031 C 7.460938 32.832031 7.296875 32.863281 7.136719 32.929688 C 6.976562 32.996094 6.839844 33.085938 6.71875 33.207031 C 6.59375 33.328125 6.503906 33.46875 6.4375 33.628906 C 6.371094 33.785156 6.335938 33.949219 6.335938 34.121094 Z M 6.335938 34.121094 " fill-opacity="1" fill-rule="nonzero"/><path fill="#26477a" d="M 109.277344 50.9375 C 109.277344 51.109375 109.3125 51.273438 109.375 51.429688 C 109.441406 51.589844 109.535156 51.730469 109.65625 51.851562 C 109.777344 51.972656 109.917969 52.0625 110.078125 52.128906 C 110.234375 52.195312 110.402344 52.226562 110.570312 52.226562 C 110.742188 52.226562 110.910156 52.195312 111.066406 52.128906 C 111.226562 52.0625 111.367188 51.972656 111.488281 51.851562 C 111.609375 51.730469 111.703125 51.589844 111.769531 51.429688 C 111.832031 51.273438 111.867188 51.109375 111.867188 50.9375 C 111.867188 50.765625 111.832031 50.601562 111.769531 50.441406 C 111.703125 50.285156 111.609375 50.144531 111.488281 50.023438 C 111.367188 49.902344 111.226562 49.808594 111.066406 49.742188 C 110.910156 49.675781 110.742188 49.644531 110.570312 49.644531 C 110.402344 49.644531 110.234375 49.675781 110.078125 49.742188 C 109.917969 49.808594 109.777344 49.902344 109.65625 50.023438 C 109.535156 50.144531 109.441406 50.285156 109.375 50.441406 C 109.3125 50.601562 109.277344 50.765625 109.277344 50.9375 Z M 109.277344 50.9375 " fill-opacity="1" fill-rule="nonzero"/><path fill="#ffb544" d="M 58.589844 67.605469 C 59.769531 68.519531 61.019531 69.320312 62.339844 70.015625 C 63.660156 70.710938 65.03125 71.285156 66.453125 71.742188 C 67.875 72.195312 69.324219 72.523438 70.804688 72.726562 C 72.285156 72.929688 73.769531 73 75.261719 72.941406 C 76.753906 72.882812 78.226562 72.699219 79.6875 72.382812 C 81.144531 72.066406 82.566406 71.628906 83.949219 71.0625 C 85.332031 70.5 86.652344 69.820312 87.914062 69.027344 C 89.179688 68.234375 90.363281 67.335938 91.46875 66.332031 C 92.574219 65.332031 93.582031 64.242188 94.496094 63.0625 C 95.410156 61.886719 96.214844 60.636719 96.910156 59.320312 C 97.609375 58 98.183594 56.632812 98.636719 55.214844 C 99.09375 53.792969 99.421875 52.347656 99.625 50.871094 C 99.824219 49.394531 99.898438 47.910156 99.839844 46.421875 C 99.78125 44.933594 99.59375 43.460938 99.277344 42.007812 C 98.960938 40.550781 98.519531 39.132812 97.953125 37.753906 C 97.386719 36.375 96.707031 35.054688 95.910156 33.792969 C 95.113281 32.535156 94.214844 31.351562 93.210938 30.25 C 92.207031 29.148438 91.113281 28.140625 89.933594 27.226562 C 88.753906 26.316406 87.5 25.511719 86.179688 24.820312 C 84.859375 24.125 83.488281 23.550781 82.066406 23.097656 C 80.644531 22.644531 79.191406 22.316406 77.714844 22.117188 C 76.234375 21.914062 74.75 21.84375 73.257812 21.902344 C 71.765625 21.964844 70.289062 22.152344 68.832031 22.46875 C 67.371094 22.785156 65.953125 23.226562 64.570312 23.789062 C 65.3125 23.859375 66.046875 23.96875 66.777344 24.113281 C 67.507812 24.261719 68.226562 24.441406 68.9375 24.660156 C 69.652344 24.878906 70.347656 25.128906 71.035156 25.417969 C 71.722656 25.707031 72.390625 26.027344 73.042969 26.382812 C 73.699219 26.738281 74.332031 27.125 74.945312 27.542969 C 75.5625 27.964844 76.152344 28.414062 76.722656 28.890625 C 77.289062 29.371094 77.835938 29.875 78.351562 30.410156 C 78.871094 30.941406 79.359375 31.5 79.824219 32.082031 C 80.285156 32.664062 80.714844 33.269531 81.117188 33.894531 C 81.515625 34.519531 81.886719 35.164062 82.222656 35.828125 C 82.558594 36.488281 82.859375 37.167969 83.125 37.859375 C 83.394531 38.554688 83.625 39.257812 83.824219 39.976562 C 84.019531 40.691406 84.179688 41.414062 84.300781 42.148438 C 84.425781 42.882812 84.511719 43.617188 84.558594 44.359375 C 84.609375 45.101562 84.621094 45.839844 84.59375 46.582031 C 84.570312 47.328125 84.503906 48.066406 84.40625 48.800781 C 84.304688 49.539062 84.167969 50.265625 83.992188 50.988281 C 83.820312 51.710938 83.609375 52.421875 83.363281 53.125 C 83.117188 53.824219 82.835938 54.511719 82.523438 55.183594 C 82.207031 55.855469 81.859375 56.511719 81.476562 57.148438 C 81.097656 57.789062 80.683594 58.40625 80.242188 59 C 79.796875 59.597656 79.324219 60.171875 78.824219 60.71875 C 78.320312 61.269531 77.792969 61.789062 77.238281 62.285156 C 76.6875 62.78125 76.109375 63.25 75.507812 63.6875 C 74.90625 64.125 74.285156 64.53125 73.640625 64.90625 C 73 65.28125 72.339844 65.625 71.664062 65.933594 C 70.988281 66.242188 70.296875 66.515625 69.59375 66.757812 C 68.886719 66.996094 68.171875 67.199219 67.449219 67.367188 C 66.722656 67.535156 65.992188 67.667969 65.253906 67.761719 C 64.515625 67.855469 63.773438 67.914062 63.03125 67.933594 C 62.285156 67.953125 61.542969 67.933594 60.800781 67.878906 C 60.058594 67.824219 59.320312 67.734375 58.589844 67.605469 Z M 58.589844 67.605469 " fill-opacity="1" fill-rule="nonzero"/></svg>