<svg xmlns="http://www.w3.org/2000/svg" xmlns:xlink="http://www.w3.org/1999/xlink" width="150" zoomAndPan="magnify" viewBox="0 0 112.5 112.499997" height="150" preserveAspectRatio="xMidYMid meet" version="1.0"><defs><clipPath id="b75d8f1d43"><path d="M 67 17.867188 L 73 17.867188 L 73 32 L 67 32 Z M 67 17.867188 " clip-rule="nonzero"/></clipPath><clipPath id="33c405dd92"><path d="M 96 54 L 109.707031 54 L 109.707031 60 L 96 60 Z M 96 54 " clip-rule="nonzero"/></clipPath><clipPath id="aead305751"><path d="M 96 55 L 109.707031 55 L 109.707031 59 L 96 59 Z M 96 55 " clip-rule="nonzero"/></clipPath><clipPath id="d600ddbbaa"><path d="M 2.289062 44 L 89 44 L 89 92 L 2.289062 92 Z M 2.289062 44 " clip-rule="nonzero"/></clipPath></defs><path fill="#f9a80c" d="M 73.664062 57.429688 C 71.96875 49.8125 65.160156 44.113281 57.015625 44.113281 C 53.65625 44.113281 50.523438 45.085938 47.882812 46.757812 C 51.816406 38.308594 60.394531 32.449219 70.34375 32.449219 C 84.015625 32.449219 95.097656 43.503906 95.097656 57.144531 C 95.097656 63.660156 92.566406 69.589844 88.433594 74 C 88.289062 65.507812 81.910156 58.53125 73.664062 57.429688 " fill-opacity="1" fill-rule="nonzero"/><path fill="#fcd666" d="M 57.015625 44.113281 C 54.472656 44.113281 52.0625 44.667969 49.898438 45.664062 C 53.921875 38.546875 61.570312 33.738281 70.34375 33.738281 C 70.34375 33.738281 80.042969 40.027344 71.632812 52.375 C 68.652344 47.425781 63.222656 44.113281 57.015625 44.113281 " fill-opacity="1" fill-rule="nonzero"/><g clip-path="url(#b75d8f1d43)"><path fill="#f9a80c" d="M 67.734375 28.457031 C 67.734375 29.894531 68.90625 31.0625 70.34375 31.0625 C 71.785156 31.0625 72.957031 29.894531 72.957031 28.457031 L 72.957031 20.472656 C 72.957031 19.035156 71.785156 17.871094 70.34375 17.871094 C 68.90625 17.871094 67.734375 19.035156 67.734375 20.472656 L 67.734375 28.457031 " fill-opacity="1" fill-rule="nonzero"/></g><path fill="#fcd666" d="M 70.34375 30.566406 C 69.179688 30.566406 68.234375 29.621094 68.234375 28.457031 L 68.234375 20.472656 C 68.234375 19.3125 69.179688 18.367188 70.34375 18.367188 C 70.34375 18.367188 72.617188 19.707031 70.199219 24.632812 C 67.78125 29.558594 70.34375 30.566406 70.34375 30.566406 " fill-opacity="1" fill-rule="nonzero"/><path fill="#f9a80c" d="M 41.589844 59.746094 C 43.03125 59.746094 44.199219 58.582031 44.199219 57.144531 C 44.199219 55.707031 43.03125 54.539062 41.589844 54.539062 L 33.589844 54.539062 C 32.148438 54.539062 30.980469 55.707031 30.980469 57.144531 C 30.980469 58.582031 32.148438 59.746094 33.589844 59.746094 L 41.589844 59.746094 " fill-opacity="1" fill-rule="nonzero"/><path fill="#fcd666" d="M 43.703125 57.144531 C 43.703125 58.304688 42.757812 59.25 41.589844 59.25 L 33.589844 59.25 C 32.425781 59.25 31.476562 58.304688 31.476562 57.144531 C 31.476562 57.144531 32.820312 54.875 37.757812 57.289062 C 42.695312 59.703125 43.703125 57.144531 43.703125 57.144531 " fill-opacity="1" fill-rule="nonzero"/><g clip-path="url(#33c405dd92)"><path fill="#f9a80c" d="M 99.101562 54.539062 C 97.660156 54.539062 96.492188 55.707031 96.492188 57.144531 C 96.492188 58.582031 97.660156 59.746094 99.101562 59.746094 L 107.101562 59.746094 C 108.542969 59.746094 109.710938 58.582031 109.710938 57.144531 C 109.710938 55.707031 108.542969 54.539062 107.101562 54.539062 L 99.101562 54.539062 " fill-opacity="1" fill-rule="nonzero"/></g><g clip-path="url(#aead305751)"><path fill="#fcd666" d="M 96.988281 57.144531 C 96.988281 55.980469 97.933594 55.035156 99.101562 55.035156 L 107.101562 55.035156 C 108.265625 55.035156 109.214844 55.980469 109.214844 57.144531 C 109.214844 57.144531 107.871094 59.410156 102.933594 57 C 98 54.585938 96.988281 57.144531 96.988281 57.144531 " fill-opacity="1" fill-rule="nonzero"/></g><path fill="#f9a80c" d="M 48.167969 38.699219 C 49.1875 39.71875 50.839844 39.71875 51.859375 38.699219 C 52.878906 37.683594 52.878906 36.035156 51.859375 35.019531 L 46.199219 29.375 C 45.179688 28.355469 43.527344 28.355469 42.511719 29.375 C 41.492188 30.390625 41.492188 32.039062 42.511719 33.054688 L 48.167969 38.699219 " fill-opacity="1" fill-rule="nonzero"/><path fill="#fcd666" d="M 51.507812 38.351562 C 50.683594 39.171875 49.34375 39.171875 48.519531 38.351562 L 42.859375 32.707031 C 42.039062 31.882812 42.039062 30.546875 42.859375 29.726562 C 42.859375 29.726562 45.417969 29.066406 47.199219 34.257812 C 48.980469 39.445312 51.507812 38.351562 51.507812 38.351562 " fill-opacity="1" fill-rule="nonzero"/><path fill="#f9a80c" d="M 92.523438 75.585938 C 91.503906 74.570312 89.851562 74.570312 88.832031 75.585938 C 87.8125 76.605469 87.8125 78.253906 88.832031 79.269531 L 94.492188 84.914062 C 95.511719 85.929688 97.164062 85.929688 98.179688 84.914062 C 99.199219 83.898438 99.199219 82.25 98.179688 81.234375 L 92.523438 75.585938 " fill-opacity="1" fill-rule="nonzero"/><path fill="#fcd666" d="M 89.183594 75.9375 C 90.007812 75.117188 91.347656 75.117188 92.171875 75.9375 L 97.832031 81.582031 C 98.652344 82.40625 98.652344 83.742188 97.832031 84.5625 C 97.832031 84.5625 95.273438 85.21875 93.492188 80.03125 C 91.710938 74.84375 89.183594 75.9375 89.183594 75.9375 " fill-opacity="1" fill-rule="nonzero"/><path fill="#f9a80c" d="M 88.832031 35.019531 C 87.8125 36.035156 87.8125 37.683594 88.832031 38.699219 C 89.851562 39.71875 91.503906 39.71875 92.523438 38.699219 L 98.179688 33.054688 C 99.199219 32.039062 99.199219 30.390625 98.179688 29.375 C 97.164062 28.355469 95.511719 28.355469 94.492188 29.375 L 88.832031 35.019531 " fill-opacity="1" fill-rule="nonzero"/><path fill="#fcd666" d="M 89.183594 38.351562 C 88.359375 37.527344 88.359375 36.191406 89.183594 35.371094 L 94.84375 29.726562 C 95.667969 28.902344 97.007812 28.902344 97.832031 29.726562 C 97.832031 29.726562 98.488281 32.273438 93.285156 34.050781 C 88.085938 35.828125 89.183594 38.351562 89.183594 38.351562 " fill-opacity="1" fill-rule="nonzero"/><path fill="#f9a80c" d="M 57.039062 31.582031 C 57.585938 32.910156 59.109375 33.550781 60.445312 33.003906 C 61.777344 32.460938 62.417969 30.941406 61.871094 29.609375 L 58.839844 22.21875 C 58.292969 20.890625 56.769531 20.25 55.4375 20.796875 C 54.101562 21.339844 53.464844 22.859375 54.011719 24.191406 L 57.039062 31.582031 " fill-opacity="1" fill-rule="nonzero"/><path fill="#fcd666" d="M 60.253906 32.546875 C 59.179688 32.984375 57.941406 32.46875 57.5 31.394531 L 54.46875 24.003906 C 54.027344 22.929688 54.546875 21.695312 55.625 21.253906 C 55.625 21.253906 58.238281 21.636719 57.867188 27.109375 C 57.5 32.582031 60.253906 32.546875 60.253906 32.546875 " fill-opacity="1" fill-rule="nonzero"/><path fill="#f9a80c" d="M 84.605469 85.03125 L 86.679688 90.097656 C 87.226562 91.425781 86.589844 92.949219 85.253906 93.492188 C 83.921875 94.035156 82.398438 93.398438 81.851562 92.066406 L 80.464844 88.6875 C 82.035156 87.699219 83.433594 86.460938 84.605469 85.03125 " fill-opacity="1" fill-rule="nonzero"/><path fill="#fcd666" d="M 84.242188 85.460938 L 86.222656 90.285156 C 86.664062 91.359375 86.144531 92.59375 85.066406 93.03125 C 85.066406 93.03125 82.453125 92.652344 82.824219 87.179688 C 82.828125 87.082031 82.832031 86.988281 82.839844 86.890625 C 83.335938 86.441406 83.804688 85.964844 84.242188 85.460938 " fill-opacity="1" fill-rule="nonzero"/><path fill="#f9a80c" d="M 95.96875 43.871094 C 94.636719 44.414062 93.996094 45.933594 94.542969 47.265625 C 95.089844 48.597656 96.613281 49.234375 97.945312 48.691406 L 105.351562 45.664062 C 106.6875 45.121094 107.324219 43.601562 106.777344 42.269531 C 106.234375 40.941406 104.710938 40.304688 103.375 40.847656 L 95.96875 43.871094 " fill-opacity="1" fill-rule="nonzero"/><path fill="#fcd666" d="M 95.003906 47.078125 C 94.5625 46.003906 95.078125 44.769531 96.15625 44.328125 L 103.5625 41.304688 C 104.640625 40.867188 105.878906 41.382812 106.320312 42.457031 C 106.320312 42.457031 105.9375 45.0625 100.453125 44.695312 C 94.964844 44.328125 95.003906 47.078125 95.003906 47.078125 " fill-opacity="1" fill-rule="nonzero"/><path fill="#f9a80c" d="M 42.820312 48.453125 C 44.148438 49.007812 45.675781 48.386719 46.234375 47.058594 C 46.792969 45.734375 46.164062 44.207031 44.835938 43.652344 L 37.457031 40.566406 C 36.128906 40.007812 34.597656 40.632812 34.042969 41.960938 C 33.484375 43.285156 34.109375 44.8125 35.4375 45.367188 L 42.820312 48.453125 " fill-opacity="1" fill-rule="nonzero"/><path fill="#fcd666" d="M 45.777344 46.867188 C 45.324219 47.941406 44.085938 48.445312 43.011719 47.996094 L 35.632812 44.910156 C 34.558594 44.460938 34.050781 43.222656 34.5 42.152344 C 34.5 42.152344 36.617188 40.578125 40.234375 44.707031 C 43.851562 48.835938 45.777344 46.867188 45.777344 46.867188 " fill-opacity="1" fill-rule="nonzero"/><path fill="#f9a80c" d="M 97.871094 65.835938 C 96.542969 65.277344 95.015625 65.902344 94.457031 67.230469 C 93.898438 68.554688 94.527344 70.082031 95.855469 70.636719 L 103.234375 73.722656 C 104.5625 74.277344 106.09375 73.65625 106.648438 72.328125 C 107.207031 71.003906 106.582031 69.476562 105.253906 68.921875 L 97.871094 65.835938 " fill-opacity="1" fill-rule="nonzero"/><path fill="#fcd666" d="M 94.914062 67.421875 C 95.367188 66.347656 96.605469 65.84375 97.679688 66.292969 L 105.058594 69.378906 C 106.136719 69.828125 106.640625 71.066406 106.191406 72.136719 C 106.191406 72.136719 104.074219 73.710938 100.457031 69.582031 C 96.839844 65.449219 94.914062 67.421875 94.914062 67.421875 " fill-opacity="1" fill-rule="nonzero"/><path fill="#f9a80c" d="M 79.054688 29.683594 C 78.5 31.007812 79.125 32.535156 80.453125 33.089844 C 81.78125 33.644531 83.3125 33.019531 83.871094 31.695312 L 86.964844 24.332031 C 87.519531 23.007812 86.894531 21.480469 85.566406 20.925781 C 84.238281 20.367188 82.707031 20.992188 82.152344 22.320312 L 79.054688 29.683594 " fill-opacity="1" fill-rule="nonzero"/><path fill="#fcd666" d="M 80.644531 32.632812 C 79.570312 32.183594 79.0625 30.945312 79.515625 29.875 L 82.609375 22.511719 C 83.058594 21.441406 84.300781 20.933594 85.375 21.382812 C 85.375 21.382812 86.953125 23.492188 82.8125 27.105469 C 78.671875 30.710938 80.644531 32.632812 80.644531 32.632812 " fill-opacity="1" fill-rule="nonzero"/><g clip-path="url(#d600ddbbaa)"><path fill="#a6dbf5" d="M 15.964844 63.78125 C 18.855469 63.78125 21.539062 64.671875 23.753906 66.1875 C 23.929688 58.753906 30.019531 52.777344 37.515625 52.777344 C 39.007812 52.777344 40.445312 53.019531 41.792969 53.457031 C 44.605469 47.914062 50.363281 44.113281 57.015625 44.113281 C 65.160156 44.113281 71.96875 49.8125 73.664062 57.429688 C 82.003906 58.542969 88.4375 65.664062 88.4375 74.292969 C 88.4375 83.273438 81.464844 90.621094 72.625 91.257812 C 72.625 91.257812 72.625 91.261719 72.625 91.261719 L 72.5625 91.261719 C 72.171875 91.289062 71.78125 91.308594 71.382812 91.308594 C 70.984375 91.308594 70.589844 91.289062 70.199219 91.261719 L 15.964844 91.261719 C 8.359375 91.261719 2.191406 85.109375 2.191406 77.523438 C 2.191406 69.933594 8.359375 63.78125 15.964844 63.78125 " fill-opacity="1" fill-rule="nonzero"/></g><path fill="#ffffff" d="M 42.28125 55.15625 C 47.207031 57.589844 49.023438 63.449219 46.785156 68.453125 C 46.453125 69.1875 46.078125 69.167969 45.800781 69.007812 C 45.523438 68.851562 45.421875 68.253906 45.578125 67.570312 C 45.734375 66.882812 45.617188 61.757812 40.414062 59.082031 C 35.210938 56.40625 30.417969 61.816406 29.464844 61.152344 C 28.511719 60.492188 28.957031 59.648438 28.957031 59.648438 C 31.394531 54.734375 37.359375 52.726562 42.28125 55.15625 " fill-opacity="1" fill-rule="nonzero"/><path fill="#ffffff" d="M 59.820312 67.886719 C 60.589844 63.734375 63.644531 60.488281 67.523438 59.328125 C 66.511719 57.1875 64.578125 54.742188 60.980469 53.300781 C 54.058594 50.53125 48.628906 57.964844 47.339844 57.238281 C 46.046875 56.511719 46.511719 55.390625 46.511719 55.390625 C 49.011719 48.867188 56.339844 45.605469 62.878906 48.101562 C 67.59375 49.902344 70.472656 54.15625 70.871094 58.871094 C 71.199219 58.878906 71.53125 58.894531 71.863281 58.929688 C 77.933594 59.578125 82.085938 64.988281 81.683594 71.066406 C 81.625 71.957031 81.222656 72.078125 80.871094 72.023438 C 80.523438 71.964844 80.1875 71.378906 80.085938 70.605469 C 79.984375 69.832031 77.886719 64.53125 71.429688 63.738281 C 66.882812 63.179688 64.097656 66.722656 62.410156 68.753906 C 67.316406 71.191406 69.125 77.039062 66.890625 82.039062 C 66.5625 82.773438 66.183594 82.75 65.90625 82.59375 C 65.628906 82.4375 65.527344 81.839844 65.683594 81.152344 C 65.839844 80.46875 65.722656 75.339844 60.519531 72.664062 C 55.316406 69.992188 50.527344 75.402344 49.570312 74.738281 C 48.617188 74.074219 49.0625 73.234375 49.0625 73.234375 C 51.085938 69.152344 55.546875 67.078125 59.820312 67.886719 " fill-opacity="1" fill-rule="nonzero"/><path fill="#ffffff" d="M 7.695312 70.070312 C 10.132812 65.160156 16.101562 63.148438 21.023438 65.582031 C 25.945312 68.011719 27.761719 73.871094 25.523438 78.875 C 25.195312 79.609375 24.820312 79.589844 24.542969 79.433594 C 24.261719 79.277344 24.164062 78.675781 24.316406 77.992188 C 24.472656 77.304688 24.359375 72.179688 19.15625 69.503906 C 13.953125 66.828125 9.160156 72.238281 8.207031 71.574219 C 7.25 70.914062 7.695312 70.070312 7.695312 70.070312 " fill-opacity="1" fill-rule="nonzero"/></svg>