<svg xmlns="http://www.w3.org/2000/svg" xmlns:xlink="http://www.w3.org/1999/xlink" width="150" zoomAndPan="magnify" viewBox="0 0 112.5 112.499997" height="150" preserveAspectRatio="xMidYMid meet" version="1.0"><defs><clipPath id="d79adb1bd9"><path d="M 40 0 L 83 0 L 83 112.003906 L 40 112.003906 Z M 40 0 " clip-rule="nonzero"/></clipPath><clipPath id="e574132a19"><path d="M 74 9 L 90.902344 9 L 90.902344 13 L 74 13 Z M 74 9 " clip-rule="nonzero"/></clipPath><clipPath id="cb6e829f45"><path d="M 74 28 L 90.902344 28 L 90.902344 32 L 74 32 Z M 74 28 " clip-rule="nonzero"/></clipPath><clipPath id="8beb3d32bc"><path d="M 74 47 L 90.902344 47 L 90.902344 51 L 74 51 Z M 74 47 " clip-rule="nonzero"/></clipPath><clipPath id="24d13ccdd8"><path d="M 74 66 L 90.902344 66 L 90.902344 70 L 74 70 Z M 74 66 " clip-rule="nonzero"/></clipPath></defs><path fill="#ffba00" d="M 42.585938 15.417969 C 41.863281 15.417969 41.273438 14.828125 41.273438 14.105469 L 41.273438 5.511719 C 41.273438 4.789062 41.863281 4.199219 42.585938 4.199219 C 43.304688 4.199219 43.894531 4.789062 43.894531 5.511719 L 43.894531 14.105469 C 43.894531 14.828125 43.304688 15.417969 42.585938 15.417969 Z M 42.585938 15.417969 " fill-opacity="1" fill-rule="evenodd"/><path fill="#ffba00" d="M 42.585938 61.480469 C 41.863281 61.480469 41.273438 60.890625 41.273438 60.167969 L 41.273438 51.507812 C 41.273438 50.785156 41.863281 50.195312 42.585938 50.195312 C 43.304688 50.195312 43.894531 50.785156 43.894531 51.507812 L 43.894531 60.167969 C 43.894531 60.890625 43.304688 61.480469 42.585938 61.480469 Z M 42.585938 61.480469 " fill-opacity="1" fill-rule="evenodd"/><path fill="#ffba00" d="M 28.953125 57.804688 C 28.691406 57.804688 28.496094 57.738281 28.296875 57.609375 C 27.644531 57.28125 27.445312 56.425781 27.773438 55.835938 L 32.097656 48.355469 C 32.492188 47.699219 33.277344 47.503906 33.867188 47.898438 C 34.523438 48.226562 34.71875 49.011719 34.394531 49.667969 L 30.066406 57.148438 C 29.804688 57.542969 29.414062 57.804688 28.953125 57.804688 Z M 28.953125 57.804688 " fill-opacity="1" fill-rule="evenodd"/><path fill="#ffba00" d="M 18.925781 47.765625 C 18.46875 47.765625 18.074219 47.570312 17.8125 47.109375 C 17.484375 46.519531 17.683594 45.734375 18.273438 45.339844 L 25.742188 41.007812 C 26.398438 40.679688 27.183594 40.878906 27.511719 41.535156 C 27.90625 42.125 27.707031 42.910156 27.054688 43.304688 L 19.582031 47.636719 C 19.386719 47.699219 19.1875 47.765625 18.925781 47.765625 Z M 18.925781 47.765625 " fill-opacity="1" fill-rule="evenodd"/><path fill="#ffba00" d="M 23.90625 34.117188 L 15.324219 34.117188 C 14.601562 34.117188 14.011719 33.527344 14.011719 32.808594 C 14.011719 32.085938 14.601562 31.496094 15.324219 31.496094 L 23.90625 31.496094 C 24.628906 31.496094 25.21875 32.085938 25.21875 32.808594 C 25.21875 33.527344 24.628906 34.117188 23.90625 34.117188 Z M 23.90625 34.117188 " fill-opacity="1" fill-rule="evenodd"/><path fill="#ffba00" d="M 26.398438 24.800781 C 26.203125 24.800781 25.9375 24.734375 25.742188 24.605469 L 18.273438 20.273438 C 17.683594 19.945312 17.484375 19.09375 17.8125 18.503906 C 18.207031 17.847656 18.992188 17.648438 19.582031 18.042969 L 27.054688 22.308594 C 27.707031 22.703125 27.90625 23.488281 27.511719 24.144531 C 27.316406 24.539062 26.855469 24.800781 26.398438 24.800781 Z M 26.398438 24.800781 " fill-opacity="1" fill-rule="evenodd"/><path fill="#ffba00" d="M 33.277344 17.914062 C 32.820312 17.914062 32.363281 17.714844 32.097656 17.257812 L 27.773438 9.777344 C 27.445312 9.1875 27.644531 8.398438 28.296875 8.003906 C 28.886719 7.675781 29.738281 7.875 30.066406 8.464844 L 34.394531 15.945312 C 34.71875 16.601562 34.523438 17.386719 33.867188 17.78125 C 33.671875 17.847656 33.476562 17.914062 33.277344 17.914062 Z M 33.277344 17.914062 " fill-opacity="1" fill-rule="evenodd"/><path fill="#ffcf00" d="M 42.585938 52.820312 C 31.574219 52.820312 22.597656 43.828125 22.597656 32.808594 C 22.597656 21.785156 31.574219 12.792969 42.585938 12.792969 C 46.1875 12.792969 49.726562 13.777344 52.808594 15.617188 C 53.203125 15.8125 53.464844 16.273438 53.464844 16.730469 L 53.464844 48.882812 C 53.464844 49.339844 53.203125 49.800781 52.808594 49.996094 C 49.726562 51.835938 46.1875 52.820312 42.585938 52.820312 Z M 42.585938 52.820312 " fill-opacity="1" fill-rule="evenodd"/><path fill="#ffba00" d="M 49.074219 13.84375 C 50.382812 14.304688 51.628906 14.894531 52.808594 15.617188 C 53.203125 15.8125 53.464844 16.273438 53.464844 16.730469 L 53.464844 48.882812 C 53.464844 49.339844 53.203125 49.800781 52.808594 49.996094 C 51.628906 50.71875 50.382812 51.308594 49.074219 51.769531 Z M 49.074219 13.84375 " fill-opacity="1" fill-rule="evenodd"/><g clip-path="url(#d79adb1bd9)"><path fill="#dae2f2" d="M 61.71875 112.003906 C 50.1875 112.003906 40.816406 102.554688 40.816406 91.070312 C 40.816406 83.722656 44.617188 76.964844 50.84375 73.160156 L 50.84375 10.957031 C 50.84375 4.921875 55.691406 0 61.71875 0 C 67.75 0 72.664062 4.921875 72.664062 10.957031 L 72.664062 73.160156 C 78.824219 76.964844 82.625 83.722656 82.625 91.070312 C 82.625 102.554688 73.253906 112.003906 61.71875 112.003906 Z M 61.71875 112.003906 " fill-opacity="1" fill-rule="evenodd"/></g><path fill="#ff4c04" d="M 61.71875 105.441406 C 53.789062 105.441406 47.367188 98.945312 47.367188 91.070312 C 47.367188 85.886719 50.1875 81.03125 54.707031 78.539062 L 57.394531 77.03125 L 57.394531 24.605469 C 57.394531 22.175781 59.296875 20.207031 61.71875 20.207031 C 64.144531 20.207031 66.113281 22.175781 66.113281 24.605469 L 66.113281 77.03125 L 68.734375 78.539062 C 73.253906 81.03125 76.074219 85.886719 76.074219 91.070312 C 76.074219 98.945312 69.648438 105.441406 61.71875 105.441406 Z M 61.71875 105.441406 " fill-opacity="1" fill-rule="evenodd"/><g clip-path="url(#e574132a19)"><path fill="#ff4c04" d="M 89.574219 12.335938 L 75.875 12.335938 C 75.15625 12.335938 74.566406 11.746094 74.566406 11.023438 C 74.566406 10.300781 75.15625 9.710938 75.875 9.710938 L 89.574219 9.710938 C 90.292969 9.710938 90.882812 10.300781 90.882812 11.023438 C 90.882812 11.746094 90.292969 12.335938 89.574219 12.335938 Z M 89.574219 12.335938 " fill-opacity="1" fill-rule="evenodd"/></g><path fill="#ff4c04" d="M 86.164062 21.785156 L 75.875 21.785156 C 75.15625 21.785156 74.566406 21.191406 74.566406 20.472656 C 74.566406 19.75 75.15625 19.160156 75.875 19.160156 L 86.164062 19.160156 C 86.886719 19.160156 87.476562 19.75 87.476562 20.472656 C 87.476562 21.191406 86.886719 21.785156 86.164062 21.785156 Z M 86.164062 21.785156 " fill-opacity="1" fill-rule="evenodd"/><g clip-path="url(#cb6e829f45)"><path fill="#ff4c04" d="M 89.574219 31.296875 L 75.875 31.296875 C 75.15625 31.296875 74.566406 30.707031 74.566406 29.984375 C 74.566406 29.261719 75.15625 28.671875 75.875 28.671875 L 89.574219 28.671875 C 90.292969 28.671875 90.882812 29.261719 90.882812 29.984375 C 90.882812 30.707031 90.292969 31.296875 89.574219 31.296875 Z M 89.574219 31.296875 " fill-opacity="1" fill-rule="evenodd"/></g><path fill="#ff4c04" d="M 86.164062 40.8125 L 75.875 40.8125 C 75.15625 40.8125 74.566406 40.222656 74.566406 39.5 C 74.566406 38.777344 75.15625 38.1875 75.875 38.1875 L 86.164062 38.1875 C 86.886719 38.1875 87.476562 38.777344 87.476562 39.5 C 87.476562 40.222656 86.886719 40.8125 86.164062 40.8125 Z M 86.164062 40.8125 " fill-opacity="1" fill-rule="evenodd"/><g clip-path="url(#8beb3d32bc)"><path fill="#ff4c04" d="M 89.574219 50.261719 L 75.875 50.261719 C 75.15625 50.261719 74.566406 49.667969 74.566406 48.949219 C 74.566406 48.226562 75.15625 47.636719 75.875 47.636719 L 89.574219 47.636719 C 90.292969 47.636719 90.882812 48.226562 90.882812 48.949219 C 90.882812 49.667969 90.292969 50.261719 89.574219 50.261719 Z M 89.574219 50.261719 " fill-opacity="1" fill-rule="evenodd"/></g><path fill="#ff4c04" d="M 86.164062 59.773438 L 75.875 59.773438 C 75.15625 59.773438 74.566406 59.183594 74.566406 58.460938 C 74.566406 57.738281 75.15625 57.148438 75.875 57.148438 L 86.164062 57.148438 C 86.886719 57.148438 87.476562 57.738281 87.476562 58.460938 C 87.476562 59.183594 86.886719 59.773438 86.164062 59.773438 Z M 86.164062 59.773438 " fill-opacity="1" fill-rule="evenodd"/><g clip-path="url(#24d13ccdd8)"><path fill="#ff4c04" d="M 89.574219 69.289062 L 75.875 69.289062 C 75.15625 69.289062 74.566406 68.699219 74.566406 67.976562 C 74.566406 67.253906 75.15625 66.664062 75.875 66.664062 L 89.574219 66.664062 C 90.292969 66.664062 90.882812 67.253906 90.882812 67.976562 C 90.882812 68.699219 90.292969 69.289062 89.574219 69.289062 Z M 89.574219 69.289062 " fill-opacity="1" fill-rule="evenodd"/></g><path fill="#ffe986" d="M 28.363281 34.117188 C 27.644531 34.117188 27.054688 33.527344 27.054688 32.808594 C 27.054688 25 33.34375 18.699219 41.144531 18.699219 C 41.863281 18.699219 42.453125 19.289062 42.453125 20.011719 C 42.453125 20.734375 41.863281 21.324219 41.144531 21.324219 C 34.785156 21.324219 29.675781 26.441406 29.675781 32.808594 C 29.675781 33.527344 29.085938 34.117188 28.363281 34.117188 Z M 28.363281 34.117188 " fill-opacity="1" fill-rule="evenodd"/><path fill="#e64404" d="M 54.707031 78.539062 C 50.1875 81.03125 47.367188 85.886719 47.367188 91.070312 C 47.367188 98.945312 53.789062 105.441406 61.71875 105.441406 C 62.046875 105.441406 62.441406 105.375 62.769531 105.375 C 55.363281 104.851562 49.464844 98.617188 49.464844 91.070312 C 49.464844 85.886719 52.285156 81.03125 56.804688 78.539062 L 59.425781 77.03125 L 59.425781 24.605469 C 59.425781 22.570312 60.867188 20.800781 62.769531 20.339844 C 62.441406 20.273438 62.113281 20.207031 61.71875 20.207031 C 59.296875 20.207031 57.394531 22.175781 57.394531 24.605469 L 57.394531 77.03125 Z M 54.707031 78.539062 " fill-opacity="1" fill-rule="evenodd"/></svg>